<svg xmlns="http://www.w3.org/2000/svg" viewBox="0 0 185.48 143.09"><defs><style>.cls-1{fill:#ffb8f4;}.cls-2{fill:none;stroke:#000;stroke-miterlimit:10;}</style></defs><title>Asset 1</title><g id="Layer_2" data-name="Layer 2"><g id="lineart"><path class="cls-1" d="M132.61,77.41l.06,0c-3.1,55.64-53.17,64.43-53.17,64.43-59.4,8.5-77.83-41.17-77.83-41.17l0,0c6.13,8.41,35.06,10.5,68.49,4.44A216.94,216.94,0,0,0,95.52,99C115.72,92.77,130.07,84.6,132.61,77.41Z" transform="translate(0 -0.25)"/><path class="cls-1" d="M114.78,64.74,106,69.87h0a125.14,125.14,0,0,0-13.15,0L104,63.82h0A99.28,99.28,0,0,1,114.78,64.74Z" transform="translate(0 -0.25)"/><path class="cls-1" d="M48.55,106c6.79-.54,14.13-1.49,21.73-2.87A218.59,218.59,0,0,0,95,97.17L95.52,99a216.94,216.94,0,0,1-25.33,6.11c-33.43,6.06-62.36,4-68.49-4.44A5.94,5.94,0,0,1,.59,98.15c-1.9-10.46,26.19-24.31,62.74-30.93A204.71,204.71,0,0,1,100,63.74L89.1,70.07a219,219,0,0,0-24.25,3.06C32.25,79,7,90.53,8.53,98.8,9.68,105.15,26.2,107.75,48.55,106Z" transform="translate(0 -0.25)"/><path class="cls-1" d="M132.93,74.17a6.18,6.18,0,0,1-.32,3.24C130.07,84.6,115.72,92.77,95.52,99L95,97.17c19.71-6,32.73-13.75,31.64-19.76-.7-3.85-7-6.32-16.9-7.27l8.8-4.77C126.89,67.06,132.18,70.05,132.93,74.17Z" transform="translate(0 -0.25)"/><polygon class="cls-1" points="99.99 63.49 177.75 18.27 180.21 22.27 103.97 63.57 103.96 63.57 92.81 69.62 43.77 96.18 89.1 69.82 99.98 63.49 99.99 63.49"/><polygon class="cls-1" points="114.79 64.49 182.32 25.22 184.78 29.22 118.5 65.12 109.7 69.89 109.69 69.89 48.33 103.13 105.96 69.62 105.97 69.62 114.78 64.49 114.79 64.49"/><path class="cls-1" d="M106,69.87,48.33,103.38l.22,2.57c-22.35,1.8-38.87-.8-40-7.15C7,90.53,32.25,79,64.85,73.13A219,219,0,0,1,89.1,70.07L43.77,96.43l49-26.56A125.14,125.14,0,0,1,106,69.87Z" transform="translate(0 -0.25)"/><path class="cls-1" d="M126.6,77.41c1.09,6-11.93,13.72-31.64,19.76a218.59,218.59,0,0,1-24.68,5.91c-7.6,1.38-14.94,2.33-21.73,2.87l-.22-2.57,61.36-33.24h0C119.56,71.09,125.9,73.56,126.6,77.41Z" transform="translate(0 -0.25)"/><path d="M95.29,38.94c3.33,2.85,5.47,6.4,4.9,10.93-.61,4.8-4,8.77-7.93,11.31-.39.25-.7-.33-.35-.59,5.07-3.86,10-10.34,6.42-16.93-2-3.75-6.07-5.82-9.16-8.58a13,13,0,0,1-4.66-10.56,59.28,59.28,0,0,1,3-15.87.37.37,0,0,1,.72.2A85.87,85.87,0,0,0,86,18.62c-.52,3.15-1.12,6.72-.27,9.86C87,33.41,91.68,35.84,95.29,38.94Z" transform="translate(0 -0.25)"/><path d="M61.22,30.13c-3.51-3-7-6.2-7.49-11.07C53.08,12.92,56,6.09,58.17.5c.18-.44.89-.25.72.2-2.44,6.58-6.82,16-2.9,22.73,2.71,4.64,8,7.08,11.09,11.39,3.85,5.3,3.1,12.11,1,18C66.41,57.69,64,64.3,58.39,65.74c-.45.12-.59-.51-.19-.67,3.74-1.51,5.77-4.44,7.37-8a37.56,37.56,0,0,0,3.31-10.72,15.59,15.59,0,0,0-2.13-10.57A28.68,28.68,0,0,0,61.22,30.13Z" transform="translate(0 -0.25)"/><path d="M44.25,43.91c3.67,5,2,9.78-.61,14.83-2.53,4.86-5.3,9.73-9.92,12.9-.39.28-.75-.36-.37-.63,5.06-3.64,8.11-9.37,10.75-14.88,1.73-3.64,2.36-7.24.12-10.83-1.62-2.6-4.06-4.47-6.41-6.36-4.37-3.5-7.51-7.17-8.35-12.86A34.52,34.52,0,0,1,31.38,9.33c.16-.4.78-.25.66.18-1.9,6.74-3.47,14.64-.41,21.31C34.28,36.59,40.61,39,44.25,43.91Z" transform="translate(0 -0.25)"/><path class="cls-2" d="M89.1,70.07a219,219,0,0,0-24.25,3.06C32.25,79,7,90.53,8.53,98.8c1.15,6.35,17.67,9,40,7.15,6.79-.54,14.13-1.49,21.73-2.87A218.59,218.59,0,0,0,95,97.17c19.71-6,32.73-13.75,31.64-19.76-.7-3.85-7-6.32-16.9-7.27" transform="translate(0 -0.25)"/><path class="cls-2" d="M106,69.87a125.14,125.14,0,0,0-13.15,0" transform="translate(0 -0.25)"/><path class="cls-2" d="M114.78,64.74A99.28,99.28,0,0,0,104,63.82" transform="translate(0 -0.25)"/><path class="cls-2" d="M100,63.74a204.71,204.71,0,0,0-36.65,3.48C26.78,73.84-1.31,87.69.59,98.15a5.94,5.94,0,0,0,1.11,2.51c6.13,8.41,35.06,10.5,68.49,4.44A216.94,216.94,0,0,0,95.52,99c20.2-6.22,34.55-14.39,37.09-21.58a6.18,6.18,0,0,0,.32-3.24c-.75-4.12-6-7.11-14.43-8.8" transform="translate(0 -0.25)"/><path class="cls-2" d="M1.67,100.69S20.1,150.36,79.5,141.86c0,0,50.07-8.79,53.17-64.43" transform="translate(0 -0.25)"/><polygon class="cls-2" points="92.81 69.62 43.77 96.18 89.1 69.82 99.98 63.49 99.99 63.49 177.75 18.27 180.21 22.27 103.97 63.57 103.96 63.57 92.81 69.62"/><polygon class="cls-2" points="48.33 103.13 105.96 69.62 105.97 69.62 114.78 64.49 114.79 64.49 182.32 25.22 184.78 29.22 118.5 65.12 109.7 69.89 109.69 69.89 48.33 103.13"/></g></g></svg>